<svg xmlns="http://www.w3.org/2000/svg" xmlns:xlink="http://www.w3.org/1999/xlink">
  <symbol id="facebook" viewBox="0 0 448 512"><g><path d="M400 32H48A48 48 0 0 0 0 80v352a48 48 0 0 0 48 48h137.25V327.69h-63V256h63v-54.64c0-62.15 37-96.48 93.67-96.48 27.14 0 55.52 4.84 55.52 4.84v61h-31.27c-30.81 0-40.42 19.12-40.42 38.73V256h68.78l-11 71.69h-57.78V480H400a48 48 0 0 0 48-48V80a48 48 0 0 0-48-48z"/></g></symbol>
  <symbol id="twitter" viewBox="0 0 512 512"><g><path d="M459.37 151.716c.325 4.548.325 9.097.325 13.645 0 138.72-105.583 298.558-298.558 298.558-59.452 0-114.68-17.219-161.137-47.106 8.447.974 16.568 1.299 25.34 1.299 49.055 0 94.213-16.568 130.274-44.832-46.132-.975-84.792-31.188-98.112-72.772 6.498.974 12.995 1.624 19.818 1.624 9.421 0 18.843-1.3 27.614-3.573-48.081-9.747-84.143-51.98-84.143-102.985v-1.299c13.969 7.797 30.214 12.67 47.431 13.319-28.264-18.843-46.781-51.005-46.781-87.391 0-19.492 5.197-37.36 14.294-52.954 51.655 63.675 129.3 105.258 216.365 109.807-1.624-7.797-2.599-15.918-2.599-24.04 0-57.828 46.782-104.934 104.934-104.934 30.213 0 57.502 12.67 76.67 33.137 23.715-4.548 46.456-13.32 66.599-25.34-7.798 24.366-24.366 44.833-46.132 57.827 21.117-2.273 41.584-8.122 60.426-16.243-14.292 20.791-32.161 39.308-52.628 54.253z"/></g></symbol>
  <symbol id="doordash" viewBox="0 0 31.83 17.85"><g><path d="M30.6,4.23A8.1,8.1,0,0,0,23.44,0H.77A.77.77,0,0,0,.06.48a.75.75,0,0,0,.17.83l4.93,4.9a2.32,2.32,0,0,0,1.65.68h16a2,2,0,1,1,0,4.07h-11a.78.78,0,0,0-.72.47.77.77,0,0,0,.17.84l4.94,4.91a2.36,2.36,0,0,0,1.65.67h5A9,9,0,0,0,30.6,4.22" /></g></symbol>
  <symbol id="uber-eats" viewBox="57 57 369 61"><g><path d="M228.06,81.56c-5.47,0-9.35,4.28-9.35,10.85v24.1h-8.35V74.09h8.25v5.18a11.19,11.19,0,0,1,9.94-5.48h3v7.77ZM204.59,95.3c0-12.65-9-22.11-21.18-22.11A21.83,21.83,0,0,0,161.73,95.3c0,12.64,9.75,22.2,22.47,22.2a22.17,22.17,0,0,0,18.3-9.06L196.44,104a14.78,14.78,0,0,1-12.24,6.17,14.22,14.22,0,0,1-14-12.14h34.41Zm-34.21-3.89c1.49-6.47,6.66-10.85,12.93-10.85s11.43,4.38,12.83,10.85Zm-35.1-18.22a21.12,21.12,0,0,0-15,6.27V58.25h-8.35v58.26h8.25v-5.38a21.45,21.45,0,0,0,15.12,6.37,22.16,22.16,0,1,0,0-44.31Zm-.6,36.85A14.69,14.69,0,1,1,149.3,95.4,14.58,14.58,0,0,1,134.68,110Zm-53.5-.4c8.06,0,14.32-6.18,14.32-15.44V58.25h8.65v58.26H95.6V111a21.24,21.24,0,0,1-15.41,6.47c-12.43,0-22-9.06-22-22.8V58.25H67v36C67,103.56,73,109.64,81.18,109.64Z" data-reactid="19"/><path d="M252.32,58.25h40.87v10H263.36V82.45h29v9.66h-29v14.44h29.83v10H252.32ZM406.06,117.6c12.53,0,19.59-6,19.59-14.24,0-5.87-4.18-10.25-12.93-12.15l-9.25-1.89c-5.37-1-7.06-2-7.06-4,0-2.59,2.59-4.18,7.36-4.18,5.17,0,9,1.39,10,6.17h10.84c-.59-9-7.06-14.94-20.18-14.94-11.34,0-19.3,4.68-19.3,13.75,0,6.27,4.38,10.35,13.83,12.34l10.34,2.39c4.08.8,5.17,1.9,5.17,3.59,0,2.69-3.08,4.38-8.06,4.38-6.26,0-9.84-1.39-11.23-6.17H384.28C385.87,111.63,392.53,117.6,406.06,117.6Zm-24.93-1.09H369.4c-7.36,0-11.44-4.58-11.44-10.36V83.25h-8.25V73.49H358V61.24H368.9V73.49h12.23v9.76H368.9v20.11c0,2.29,1.59,3.39,4.08,3.39h8.15Zm-47-43v3.88a21.16,21.16,0,0,0-13.73-5,22.61,22.61,0,1,0,0,45.21,21.1,21.1,0,0,0,13.73-5v3.89H345v-43Zm-12.83,34.65a13.15,13.15,0,1,1,13-13.14A13,13,0,0,1,321.28,108.14Z" /></g></symbol>
  <symbol id="chevron-left" viewBox="0 0 256 512"><g><path d="M238.475 475.535l7.071-7.07c4.686-4.686 4.686-12.284 0-16.971L50.053 256 245.546 60.506c4.686-4.686 4.686-12.284 0-16.971l-7.071-7.07c-4.686-4.686-12.284-4.686-16.97 0L10.454 247.515c-4.686 4.686-4.686 12.284 0 16.971l211.051 211.05c4.686 4.686 12.284 4.686 16.97-.001z"/></g></symbol>
  <symbol id="chevron-right" viewBox="0 0 256 512"><g><path d="M17.525 36.465l-7.071 7.07c-4.686 4.686-4.686 12.284 0 16.971L205.947 256 10.454 451.494c-4.686 4.686-4.686 12.284 0 16.971l7.071 7.07c4.686 4.686 12.284 4.686 16.97 0l211.051-211.05c4.686-4.686 4.686-12.284 0-16.971L34.495 36.465c-4.686-4.687-12.284-4.687-16.97 0z"/></g></symbol>
</svg>
